<svg width="569" height="598" viewBox="0 0 569 598" fill="none" xmlns="http://www.w3.org/2000/svg">
<g filter="url(#filter0_d_3_207)">
<path d="M192.322 41.9795C193.977 40.9395 195.756 40.1364 197.614 39.5915L198.695 34.1111L207.526 33.9439L208.8 39.3886C210.672 39.8729 212.475 40.6156 214.16 41.5975L218.621 38.5289L224.983 44.9765L222.217 49.7525C223.209 51.4839 223.975 53.3473 224.493 55.2926L229.717 56.4269L229.876 65.6924L224.687 67.0177C224.227 68.9824 223.519 70.8738 222.581 72.6415L225.506 77.3339L219.361 83.9964L214.809 81.095C213.159 82.1356 211.383 82.9388 209.529 83.483L208.391 88.9634L199.56 89.1306L198.285 83.686C196.417 83.2016 194.618 82.4588 192.937 81.4771L188.464 84.5456L182.08 78.11L184.845 73.334C183.854 71.5981 183.089 69.7308 182.569 67.7819L177.346 66.5879L177.187 57.3224L182.376 55.9852C182.837 54.0211 183.545 52.13 184.481 50.3614L181.557 45.669L187.77 39.0781L192.322 41.9795ZM197.033 54.3255C195.731 55.74 194.857 57.528 194.522 59.4635C194.188 61.399 194.408 63.3951 195.155 65.1993C195.902 67.0036 197.142 68.5349 198.718 69.5998C200.294 70.6647 202.136 71.2152 204.011 71.1818C205.885 71.1484 207.708 70.5326 209.249 69.4122C210.79 68.2918 211.98 66.7172 212.668 64.8874C213.356 63.0576 213.512 61.0548 213.115 59.1323C212.718 57.2098 211.787 55.454 210.439 54.0867C209.542 53.1729 208.482 52.454 207.32 51.9713C206.158 51.4886 204.916 51.2515 203.666 51.2737C202.416 51.2958 201.183 51.5769 200.037 52.1006C198.891 52.6243 197.855 53.3804 196.988 54.3255H197.033Z" fill="#E0E0E0"/>
<path d="M194.37 349.482C195.323 348.88 196.349 348.414 197.42 348.097L198.046 344.933L203.144 344.838L203.873 347.978C204.954 348.252 205.995 348.678 206.968 349.243L209.54 347.476L213.204 351.19L211.668 353.924C212.242 354.924 212.686 356 212.988 357.124L216.004 357.781L216.095 363.13L213.102 363.894C212.841 365.028 212.435 366.121 211.896 367.142L213.58 369.84L210.041 373.685L207.412 372.013C206.457 372.615 205.432 373.084 204.362 373.41L203.702 376.61L198.604 376.705L197.875 373.565C196.794 373.291 195.753 372.865 194.78 372.3L192.208 374.067L188.544 370.353L190.137 367.595C189.564 366.593 189.116 365.518 188.806 364.395L185.801 363.739L185.71 358.39L188.703 357.625C188.965 356.491 189.37 355.399 189.909 354.378L188.225 351.679L191.764 347.835L194.393 349.506L194.37 349.482ZM197.09 356.646C196.337 357.463 195.831 358.496 195.637 359.614C195.443 360.732 195.57 361.886 196.001 362.929C196.433 363.971 197.149 364.856 198.06 365.471C198.971 366.086 200.036 366.404 201.119 366.384C202.202 366.364 203.255 366.007 204.145 365.359C205.035 364.71 205.721 363.799 206.117 362.741C206.513 361.683 206.601 360.525 206.37 359.415C206.138 358.305 205.598 357.291 204.817 356.503C204.304 355.977 203.697 355.562 203.031 355.282C202.365 355.002 201.652 354.862 200.935 354.871C200.217 354.88 199.508 355.037 198.849 355.333C198.189 355.63 197.591 356.06 197.09 356.599V356.646Z" fill="#E0E0E0"/>
<path d="M83.3926 71.4594C84.0437 71.0463 84.744 70.7251 85.4752 70.5042L85.9076 68.3431H89.3785L89.902 70.4206C90.6395 70.6172 91.3506 70.91 92.0187 71.2922L93.7712 70.0982L96.2748 72.6295L95.1368 74.516C95.5305 75.1992 95.8367 75.9339 96.0472 76.7011L98.107 77.1548V80.7368L96.0586 81.2621C95.8804 82.0372 95.6049 82.784 95.2392 83.483L96.3772 85.3217L93.9646 87.9485L92.1666 86.7545C91.5155 87.1677 90.8153 87.4888 90.0841 87.7097L89.6516 89.8709H86.2376L85.7369 87.7217C84.9982 87.5347 84.2864 87.2456 83.6202 86.862L81.8677 88.056L79.3641 85.5128L80.5021 83.6382C80.1083 82.955 79.8022 82.2204 79.5917 81.4532L77.5319 80.9995L77.475 77.4175L79.5121 76.8921C79.6994 76.1183 79.9785 75.3722 80.3428 74.6713L79.2048 72.8325L81.6173 70.2057L83.4154 71.3997L83.3926 71.4594ZM85.2476 76.319C84.735 76.8762 84.3913 77.5803 84.2601 78.3424C84.1288 79.1045 84.2158 79.8903 84.5102 80.6005C84.8045 81.3107 85.2929 81.9134 85.9136 82.3324C86.5344 82.7514 87.2596 82.9679 87.9976 82.9546C88.7355 82.9412 89.4532 82.6986 90.0598 82.2574C90.6664 81.8162 91.1347 81.1962 91.4055 80.4758C91.6763 79.7553 91.7375 78.9669 91.5813 78.21C91.4251 77.4531 91.0585 76.7618 90.5279 76.2235C90.1753 75.8658 89.759 75.5845 89.3027 75.3956C88.8465 75.2068 88.3592 75.1142 87.8689 75.1231C87.3785 75.132 86.8946 75.2421 86.4448 75.4473C85.995 75.6525 85.5882 75.9487 85.2476 76.319Z" fill="#E0E0E0"/>
<path d="M253.273 63.782C254.557 62.968 255.939 62.3376 257.381 61.9074L258.224 57.6448L265.052 57.5135L266.042 61.7522C267.501 62.1265 268.906 62.7048 270.218 63.4716L273.632 61.0836L278.673 66.17L276.534 69.8475C277.312 71.1972 277.913 72.6512 278.321 74.1698L282.395 75.0534L282.508 82.2174L278.48 83.2561C278.113 84.7951 277.555 86.2765 276.818 87.662L279.094 91.3156L274.326 96.4976L270.776 94.2409C269.491 95.0524 268.109 95.6827 266.668 96.1155L265.814 100.378L258.986 100.509L257.996 96.2707C256.521 95.9053 255.101 95.3309 253.774 94.5633L250.36 96.9513L245.41 91.9485L247.56 88.2232C246.786 86.8713 246.185 85.4179 245.774 83.9009L241.711 83.0173L241.586 75.8533L245.626 74.8146C245.983 73.2873 246.534 71.8174 247.265 70.4445L244.989 66.7909L249.757 61.6089L253.273 63.782ZM256.938 73.334C255.925 74.4358 255.247 75.8279 254.989 77.3341C254.73 78.8404 254.904 80.3932 255.487 81.7961C256.07 83.199 257.036 84.389 258.264 85.2156C259.491 86.0422 260.925 86.4682 262.383 86.4398C263.842 86.4114 265.259 85.9299 266.457 85.0561C267.654 84.1822 268.578 82.9554 269.111 81.5308C269.644 80.1061 269.762 78.5477 269.451 77.0525C269.139 75.5573 268.412 74.1926 267.362 73.131C266.659 72.4311 265.832 71.8835 264.928 71.5196C264.023 71.1557 263.059 70.9827 262.091 71.0104C261.122 71.0382 260.169 71.2661 259.284 71.6812C258.4 72.0963 257.603 72.6905 256.938 73.4295V73.334Z" fill="#EBEBEB"/>
<path d="M434.955 241.807C436.601 240.767 438.373 239.964 440.224 239.419L441.362 233.939L450.181 233.772L451.456 239.216C453.329 239.695 455.133 240.438 456.816 241.425L461.265 238.357L467.616 244.792L464.862 249.568C465.847 251.303 466.612 253.166 467.138 255.109L472.361 256.303L472.52 265.556L467.331 266.893C466.875 268.855 466.166 270.743 465.226 272.505L468.15 277.186L462.028 283.776L457.476 280.875C455.825 281.914 454.049 282.717 452.196 283.263L451.058 288.744L442.238 288.899L440.964 283.478C439.095 282.994 437.297 282.251 435.615 281.269L431.154 284.338L424.804 277.902L427.569 273.126C426.578 271.399 425.812 269.539 425.293 267.598L420.07 266.404L419.922 257.21L425.1 255.873C425.561 253.909 426.269 252.018 427.205 250.249L424.28 245.58L430.414 238.918L434.966 241.819L434.955 241.807ZM439.655 254.141C438.355 255.556 437.485 257.342 437.153 259.276C436.821 261.209 437.043 263.202 437.791 265.003C438.538 266.804 439.778 268.332 441.353 269.394C442.928 270.456 444.768 271.004 446.64 270.969C448.512 270.933 450.332 270.317 451.87 269.197C453.408 268.077 454.595 266.503 455.281 264.676C455.967 262.848 456.121 260.848 455.724 258.928C455.327 257.008 454.396 255.255 453.049 253.891C452.155 252.982 451.099 252.268 449.941 251.789C448.783 251.31 447.547 251.075 446.302 251.099C445.058 251.122 443.83 251.403 442.69 251.925C441.549 252.447 440.518 253.2 439.655 254.141Z" fill="#E0E0E0"/>
<path d="M497.306 61.6567C497.313 57.8 496.471 53.9938 494.848 50.5339C493.224 47.074 490.861 44.0537 487.943 41.708C485.026 39.3623 481.632 37.7543 478.025 37.0092C474.419 36.2641 470.697 36.4019 467.15 37.4119C463.602 38.4219 460.324 40.2769 457.572 42.8325C454.819 45.3882 452.665 48.5757 451.278 52.1471C449.89 55.7185 449.307 59.5775 449.573 63.424C449.838 67.2706 450.946 71.001 452.81 74.325L452.878 74.4205C453.789 76.0444 454.938 77.2026 456.099 78.898L469.994 98.1931C470.397 98.7407 470.914 99.1841 471.506 99.4892C472.098 99.7943 472.749 99.953 473.408 99.953C474.067 99.953 474.718 99.7943 475.31 99.4892C475.902 99.1841 476.419 98.7407 476.822 98.1931L490.478 79.2204C491.719 77.6974 492.877 76.1029 493.949 74.4444L494.006 74.3728C496.173 70.5214 497.313 66.1292 497.306 61.6567ZM473.408 72.5698C471.329 72.5675 469.297 71.9184 467.569 70.7047C465.842 69.491 464.496 67.7671 463.701 65.751C462.907 63.7348 462.701 61.5169 463.108 59.3776C463.515 57.2383 464.517 55.2736 465.988 53.7319C467.459 52.1901 469.333 51.1406 471.372 50.7158C473.412 50.2911 475.525 50.5103 477.446 51.3457C479.367 52.181 481.008 53.5951 482.163 55.4092C483.318 57.2232 483.935 59.3557 483.935 61.5373C483.935 62.9871 483.662 64.4227 483.133 65.762C482.604 67.1013 481.828 68.3181 480.851 69.3427C479.873 70.3673 478.713 71.1797 477.435 71.7335C476.158 72.2872 474.79 72.5714 473.408 72.5698Z" fill="#E0E0E0"/>
<path d="M76.5533 422.519C78.975 420.753 80.8493 418.279 81.9437 415.405C83.0381 412.531 83.3045 409.384 82.7098 406.353C81.1508 397.768 73.6058 392.025 65.9926 393.565C58.3794 395.105 53.3608 403.296 54.9199 411.893C55.429 414.968 56.7961 417.815 58.8482 420.074C60.9003 422.333 63.5451 423.903 66.4478 424.585C45.7135 432.322 51.21 456.489 51.21 456.489L101.771 446.411C101.771 446.411 98.3573 421.552 76.5533 422.519Z" fill="#EBEBEB"/>
<path d="M137.812 525.538L127.456 522.839C127.456 522.839 125.305 532.009 116.178 529.824C114.414 529.437 112.808 528.483 111.584 527.094C110.36 525.705 109.58 523.951 109.35 522.075C109.135 520.504 109.278 518.901 109.766 517.398C110.255 515.896 111.075 514.536 112.161 513.43C114.642 510.828 119.171 509.048 125.817 512.165L131.61 487.533L121.311 484.87L117.897 499.305C117.897 499.305 102.545 499.485 98.6304 516.177C94.875 532.152 107.655 539.388 113.504 540.892C117.988 542.051 133.476 544.857 137.812 525.538Z" fill="#EBEBEB"/>
<path d="M122.371 479.77L132.813 482.469L135.217 472.232L124.775 469.533L122.371 479.77Z" fill="#EBEBEB"/>
<path d="M532.721 562.755C532.721 562.922 421.948 563.065 285.342 563.065C148.737 563.065 37.9523 562.874 37.9523 562.755C37.9523 562.635 148.691 562.444 285.342 562.444C421.993 562.444 532.721 562.575 532.721 562.755Z" fill="black"/>
<path d="M66.004 262.225H89.7768L87.6829 273.413H44.86L46.5556 264.517L72.3313 243.324C78.7041 237.975 80.6501 234.846 80.6501 230.942C80.6501 227.038 77.8164 224.411 72.3313 224.411C70.0161 224.447 67.7375 225.022 65.6595 226.094C63.5815 227.165 61.7558 228.707 60.314 230.608L51.5059 223.909C56.0579 217.378 64.5132 213.056 74.2659 213.056C86.2263 213.056 94.0557 219.754 94.0557 228.996C94.0557 236.028 90.9945 241.963 81.0484 250.022L66.004 262.225Z" fill="#263238"/>
<path d="M146.415 260.959H137.129L134.785 273.413H122.016L124.44 260.959H93.976L95.6717 251.718L128.97 214.071H143.263L112.241 249.759H127.103L129.209 238.655H141.408L139.303 249.759H148.6L146.415 260.959Z" fill="#263238"/>
<path d="M183.741 202.035H195.543L154.017 281.89H142.25L183.741 202.035Z" fill="#263238"/>
<path d="M237.637 214.071L235.942 222.978L205.728 273.413H191.184L220.18 225.259H201.847L199.981 234.93H188.35L192.322 214.071H237.637Z" fill="#263238"/>
<path d="M39.5683 320.229L42.8798 313.638C45.8313 315.617 49.2553 316.681 52.7577 316.707C55.9896 316.707 57.8559 315.644 57.8559 313.949C57.8559 309.758 43.4261 312.074 43.4261 302.284C43.4261 295.561 48.8999 291.155 57.6852 291.155C61.4113 291.026 65.1021 291.949 68.371 293.83L65.3212 300.373C62.8722 298.792 60.0488 297.964 57.1731 297.985C53.6908 297.985 51.8245 299.322 51.8245 301.018C51.8245 305.292 66.2544 302.845 66.2544 312.456C66.2544 319.131 60.6554 323.537 51.9611 323.537C46.8628 323.561 42.2426 322.14 39.5683 320.229Z" fill="#263238"/>
<path d="M81.2191 298.594L80.2518 303.848H93.4412L92.178 310.427H78.9772L77.9075 316.134H93.4867L92.1211 322.94H68.28L74.2659 291.836H97.5152L96.1951 298.654L81.2191 298.594Z" fill="#263238"/>
<path d="M119.183 313.591L124.235 322.94H115.45L111.035 314.665H106.801L105.231 322.94H96.8324L102.761 291.836H115.45C123.041 291.836 127.41 295.537 127.41 301.77C127.47 304.416 126.696 307.008 125.209 309.145C123.721 311.283 121.603 312.845 119.183 313.591ZM114.267 298.725H109.851L108.11 307.848H113.117C116.816 307.848 118.978 305.985 118.978 302.558C118.932 299.931 117.146 298.725 114.267 298.725Z" fill="#263238"/>
<path d="M164.225 291.836L145.664 322.94H137.391L130.586 291.836H139.2L143.445 312.134L155.576 291.836H164.225Z" fill="#263238"/>
<path d="M166 291.836H174.41L168.424 322.94H160.026L166 291.836Z" fill="#263238"/>
<path d="M175.719 309.853C175.719 299.036 183.309 291.155 194.336 291.155C199.81 291.155 204.271 293.257 206.388 297.03L200.288 302.104C199.607 300.946 198.64 300.003 197.491 299.372C196.341 298.742 195.051 298.448 193.756 298.522C187.986 298.522 184.163 303.191 184.163 309.328C184.163 313.519 186.882 316.325 191.423 316.325C192.809 316.332 194.179 316.014 195.434 315.394C196.688 314.774 197.794 313.869 198.672 312.743L203.634 317.853C200.288 322.092 195.918 323.644 190.615 323.644C181.534 323.561 175.719 317.997 175.719 309.853Z" fill="#263238"/>
<path d="M218.644 298.594L217.665 303.848H230.855L229.626 310.427H216.391L215.332 316.134H230.9L229.546 322.94H205.75L211.668 291.836H234.917L233.609 298.654L218.644 298.594Z" fill="#263238"/>
<path d="M71.8647 196.507H55.284C55.284 172.293 64.627 147.553 80.9118 128.568C98.0501 108.617 120.298 97.6319 143.502 97.6319C190.922 97.6319 224.049 133.953 224.049 185.988H207.503C207.503 143.565 181.795 115.064 143.536 115.064C106.027 115.028 71.8647 153.857 71.8647 196.507Z" fill="#5ED8FF"/>
<path d="M80.9573 191.671C83.6089 191.671 85.7597 191.946 85.7483 192.197C85.7369 192.447 83.5975 192.638 80.9573 192.638C78.3172 192.638 76.155 192.412 76.155 192.113C76.155 191.815 78.3172 191.624 80.9573 191.671Z" fill="#263238"/>
<path d="M92.4056 153.535C94.6816 155.063 96.2179 156.627 95.9675 157.045C95.7172 157.463 93.6915 156.615 91.4155 155.171C89.1395 153.726 87.626 152.138 87.865 151.66C88.104 151.183 90.1865 152.019 92.4056 153.535Z" fill="#263238"/>
<path d="M121.083 127.255C122.164 129.798 122.699 132.031 122.221 132.222C121.743 132.413 120.526 130.562 119.365 128.067C118.204 125.572 117.669 123.291 118.227 123.1C118.784 122.909 120.013 124.676 121.083 127.255Z" fill="#263238"/>
<path d="M158.865 124.127C158.205 126.825 157.306 128.903 156.862 128.807C156.418 128.712 156.509 126.419 157.078 123.685C157.647 120.951 158.535 118.909 159.081 119.016C159.627 119.124 159.525 121.44 158.865 124.127Z" fill="#263238"/>
<path d="M189.727 146.884C187.52 148.413 185.528 149.344 185.266 148.962C185.005 148.58 186.541 146.932 188.68 145.296C190.82 143.661 192.823 142.741 193.141 143.219C193.46 143.696 191.935 145.344 189.727 146.884Z" fill="#263238"/>
<path d="M199.89 184.376C197.25 184.376 195.099 184.161 195.099 183.922C195.099 183.683 197.238 183.445 199.89 183.409C202.541 183.373 204.681 183.576 204.692 183.863C204.703 184.149 202.564 184.376 199.89 184.376Z" fill="#263238"/>
<path d="M139.007 189.558C138.181 189.564 137.378 189.273 136.731 188.734L108.861 166.048C108.088 165.415 107.587 164.485 107.468 163.464C107.348 162.443 107.62 161.414 108.224 160.603C108.827 159.793 109.713 159.267 110.686 159.142C111.66 159.016 112.64 159.301 113.413 159.935L138.836 180.615L173.943 146.789C174.66 146.091 175.612 145.72 176.589 145.758C177.567 145.796 178.49 146.24 179.155 146.992C179.821 147.744 180.174 148.743 180.138 149.768C180.102 150.794 179.679 151.762 178.962 152.46L141.556 188.519C140.863 189.193 139.951 189.565 139.007 189.558Z" fill="#5ED8FF"/>
<path d="M157.909 72.0564H125.954C125.457 72.0564 125.055 72.4787 125.055 72.9997V85.1427C125.055 85.6636 125.457 86.0859 125.954 86.0859H157.909C158.405 86.0859 158.808 85.6636 158.808 85.1427V72.9997C158.808 72.4787 158.405 72.0564 157.909 72.0564Z" fill="#5ED8FF"/>
<path d="M150.648 79.0771H133.203V95.6737H150.648V79.0771Z" fill="#5ED8FF"/>
<path d="M69.9192 114.992L56.8145 132.02C56.3051 132.682 56.4036 133.652 57.0344 134.186L65.9945 141.777C66.6253 142.312 67.5496 142.209 68.0589 141.547L81.1636 124.519C81.673 123.857 81.5745 122.887 80.9437 122.353L71.9836 114.762C71.3528 114.227 70.4285 114.331 69.9192 114.992Z" fill="#5ED8FF"/>
<path d="M157.909 86.0859C157.909 86.2889 150.751 86.4441 141.977 86.4441C133.203 86.4441 126.045 86.2889 126.045 86.0859C126.045 85.8829 133.192 85.7277 141.977 85.7277C150.762 85.7277 157.909 85.8949 157.909 86.0859Z" fill="#263238"/>
<path d="M69.6229 138.622C69.4408 138.837 67.0282 136.903 64.0467 134.55C61.0651 132.198 58.6412 130.288 58.7891 130.049C58.937 129.81 61.6113 131.362 64.627 133.738C67.6427 136.115 69.7936 138.419 69.6229 138.622Z" fill="#263238"/>
<path d="M72.3996 134.335C72.2175 134.55 69.8049 132.616 66.8234 130.264C63.8418 127.912 61.4065 126.001 61.5544 125.763C61.7024 125.524 64.3881 127.076 67.4038 129.464C70.4195 131.852 72.5703 134.132 72.3996 134.335Z" fill="#263238"/>
<path d="M75.8022 130.742C75.6315 130.956 73.2189 129.022 70.2374 126.67C67.2558 124.318 64.866 122.407 64.9684 122.169C65.0708 121.93 67.8021 123.482 70.8064 125.87C73.8107 128.258 75.9843 130.539 75.8022 130.742Z" fill="#263238"/>
<path d="M79.1024 126.455C78.9317 126.67 76.5077 124.736 73.5262 122.384C70.5446 120.031 68.1207 118.121 68.28 117.882C68.4393 117.643 71.1136 119.196 74.1179 121.584C77.1223 123.972 79.2731 126.252 79.1024 126.455Z" fill="#263238"/>
<path d="M222.146 120.374L208.04 104.251C207.491 103.624 206.563 103.583 205.966 104.158L197.481 112.329C196.884 112.904 196.844 113.879 197.393 114.505L211.499 130.629C212.047 131.255 212.976 131.297 213.573 130.722L222.057 122.551C222.654 121.975 222.694 121.001 222.146 120.374Z" fill="#5ED8FF"/>
<path d="M199.912 116.581C199.742 116.366 201.915 114.193 204.578 111.399C207.241 108.605 209.392 106.42 209.597 106.623C209.802 106.826 207.947 109.369 205.25 112.139C202.553 114.909 200.072 116.784 199.912 116.581Z" fill="#263238"/>
<path d="M203.543 120.091C203.361 119.876 205.546 117.703 208.197 114.909C210.849 112.115 213.022 109.93 213.227 110.133C213.432 110.336 211.566 112.879 208.88 115.649C206.194 118.419 203.702 120.294 203.543 120.091Z" fill="#263238"/>
<path d="M206.422 124.163C206.24 123.948 208.425 121.775 211.076 118.981C213.728 116.187 215.901 114.002 216.106 114.205C216.311 114.408 214.445 116.939 211.748 119.709C209.051 122.479 206.581 124.366 206.422 124.163Z" fill="#263238"/>
<path d="M209.972 128.258C209.79 128.043 211.975 125.87 214.627 123.076C217.278 120.282 219.452 118.097 219.657 118.3C219.862 118.503 217.995 121.046 215.298 123.816C212.601 126.586 210.132 128.425 209.972 128.258Z" fill="#263238"/>
<path d="M129.539 86.074C129.277 86.074 129.061 82.9696 129.061 79.1607C129.061 75.3519 129.277 72.2355 129.539 72.2355C129.8 72.2355 130.028 75.3399 130.028 79.1607C130.028 82.9815 129.812 86.074 129.539 86.074Z" fill="#263238"/>
<path d="M135.798 86.074C135.536 86.074 135.32 82.9696 135.32 79.1607C135.32 75.3519 135.536 72.2355 135.798 72.2355C136.059 72.2355 136.275 75.3399 136.275 79.1607C136.275 82.9815 136.059 86.074 135.798 86.074Z" fill="#263238"/>
<path d="M142.045 86.074C141.783 86.074 141.567 82.9696 141.567 79.1607C141.567 75.3519 141.783 72.2355 142.045 72.2355C142.307 72.2355 142.523 75.3399 142.523 79.1607C142.523 82.9815 142.318 86.074 142.045 86.074Z" fill="#263238"/>
<path d="M148.304 86.074C148.031 86.074 147.826 82.9696 147.826 79.1607C147.826 75.3519 148.031 72.2355 148.304 72.2355C148.577 72.2355 148.782 75.3399 148.782 79.1607C148.782 82.9815 148.566 86.074 148.304 86.074Z" fill="#263238"/>
<path d="M154.552 86.074C154.29 86.074 154.074 82.9696 154.074 79.1607C154.074 75.3519 154.29 72.2355 154.552 72.2355C154.814 72.2355 155.03 75.3399 155.03 79.1607C155.03 82.9815 154.768 86.074 154.552 86.074Z" fill="#263238"/>
<path d="M145.771 190.557C149.033 187.135 149.033 181.586 145.771 178.163C142.509 174.741 137.22 174.741 133.958 178.163C130.696 181.586 130.696 187.135 133.958 190.557C137.22 193.98 142.509 193.98 145.771 190.557Z" fill="#5ED8FF"/>
<path d="M148.213 184.376C148.133 184.376 148.145 183.6 147.792 182.275C147.286 180.425 146.209 178.804 144.731 177.666C143.546 176.742 142.139 176.183 140.669 176.049C139.198 175.916 137.721 176.213 136.402 176.909C135.083 177.605 133.975 178.672 133.2 179.99C132.426 181.309 132.016 182.827 132.016 184.376C132.016 185.925 132.426 187.443 133.2 188.762C133.975 190.08 135.083 191.147 136.402 191.843C137.721 192.539 139.198 192.836 140.669 192.703C142.139 192.569 143.546 192.01 144.731 191.086C146.207 189.945 147.283 188.325 147.792 186.477C148.145 185.152 148.133 184.376 148.213 184.376C148.293 184.376 148.213 184.567 148.213 184.937C148.231 185.484 148.178 186.03 148.054 186.561C147.645 188.554 146.582 190.334 145.049 191.588C143.905 192.531 142.551 193.155 141.114 193.401C139.677 193.647 138.205 193.508 136.833 192.997C135.135 192.365 133.665 191.197 132.626 189.654C131.586 188.11 131.028 186.266 131.028 184.376C131.028 182.486 131.586 180.642 132.626 179.098C133.665 177.555 135.135 176.387 136.833 175.755C138.204 175.245 139.676 175.106 141.112 175.35C142.548 175.594 143.902 176.214 145.049 177.152C146.581 178.412 147.644 180.195 148.054 182.191C148.178 182.722 148.231 183.268 148.213 183.815C148.27 184.161 148.247 184.376 148.213 184.376Z" fill="#263238"/>
<path d="M433.885 214.393L448.156 212.005C457.509 219.923 469.347 223.884 481.343 223.109C493.338 222.334 504.624 216.878 512.98 207.816C521.336 198.753 526.159 186.738 526.501 174.134C526.843 161.529 522.678 149.246 514.826 139.7C506.974 130.154 496.002 124.035 484.068 122.545C472.134 121.056 460.101 124.305 450.334 131.652C440.566 139 433.772 149.915 431.287 162.252C428.801 174.589 430.804 187.456 436.901 198.322L433.885 214.393Z" fill="white"/>
<path d="M433.885 214.393C433.885 214.393 433.885 214.059 434.045 213.378L434.591 210.322C435.08 207.575 435.808 203.552 436.753 198.298C436.755 198.281 436.761 198.265 436.771 198.25C436.78 198.236 436.792 198.223 436.806 198.214C436.82 198.205 436.836 198.199 436.852 198.197C436.869 198.195 436.885 198.197 436.901 198.203C436.911 198.196 436.923 198.193 436.935 198.193C436.947 198.193 436.959 198.196 436.969 198.203L436.764 198.37C432.692 191.157 430.389 182.997 430.062 174.621C429.961 172.014 430.056 169.403 430.346 166.812C430.684 164.039 431.225 161.296 431.962 158.609C434.65 148.868 440.064 140.198 447.502 133.722C454.94 127.246 464.06 123.263 473.681 122.288C481.23 121.541 488.84 122.672 495.893 125.591C502.947 128.511 509.244 133.135 514.274 139.088L516.208 141.476C516.811 142.311 517.346 143.183 517.938 144.019C519.062 145.718 520.084 147.489 520.999 149.32C521.5 150.204 521.818 151.183 522.24 152.102C522.661 153.022 523.093 153.941 523.378 154.92C524.052 156.815 524.611 158.753 525.05 160.723C526.801 168.376 526.859 176.349 525.221 184.03C523.026 194.018 517.995 203.072 510.792 209.996C503.589 216.92 494.554 221.389 484.879 222.811C482.221 223.19 479.538 223.353 476.856 223.3C474.365 223.176 471.884 222.897 469.425 222.465C461.595 220.935 454.256 217.372 448.076 212.101H448.178L437.504 213.784L434.784 214.202L433.885 214.333L434.83 214.154L437.572 213.677L448.133 211.838H448.235C454.409 217.022 461.714 220.514 469.493 221.999C471.933 222.425 474.396 222.692 476.867 222.799C479.531 222.844 482.195 222.672 484.833 222.286C494.392 220.835 503.309 216.387 510.417 209.526C517.524 202.666 522.49 193.712 524.663 183.839C526.271 176.246 526.205 168.368 524.47 160.806C524.024 158.865 523.473 156.951 522.82 155.075C522.535 154.108 522.057 153.225 521.682 152.293C521.306 151.362 520.942 150.419 520.453 149.547C519.552 147.738 518.541 145.991 517.426 144.317C516.857 143.482 516.288 142.622 515.719 141.798L513.807 139.41C508.838 133.529 502.62 128.959 495.654 126.07C488.689 123.18 481.173 122.052 473.715 122.778C467.113 123.462 460.718 125.576 454.933 128.985C449.149 132.395 444.102 137.026 440.11 142.586C436.632 147.45 434.032 152.942 432.44 158.789C431.705 161.448 431.161 164.162 430.813 166.908C430.511 169.478 430.405 172.069 430.494 174.657C430.772 182.975 433.004 191.091 436.992 198.286C437.014 198.31 437.026 198.342 437.026 198.376C437.026 198.409 437.014 198.441 436.992 198.465C436.97 198.485 436.941 198.495 436.912 198.495C436.883 198.495 436.855 198.485 436.833 198.465L437.037 198.394C436.036 203.587 435.262 207.575 434.761 210.334C434.5 211.683 434.295 212.722 434.158 213.414C434.022 214.107 433.885 214.393 433.885 214.393Z" fill="#263238"/>
<path d="M492.936 174.203C492.934 173.189 493.219 172.197 493.754 171.353C494.29 170.509 495.052 169.85 495.945 169.461C496.837 169.072 497.82 168.97 498.768 169.167C499.716 169.364 500.587 169.852 501.27 170.569C501.954 171.286 502.419 172.2 502.607 173.195C502.795 174.19 502.697 175.22 502.326 176.157C501.955 177.093 501.328 177.893 500.523 178.455C499.719 179.017 498.773 179.316 497.807 179.313C496.516 179.31 495.279 178.771 494.366 177.813C493.453 176.855 492.939 175.557 492.936 174.203Z" fill="#263238"/>
<path d="M473.408 174.203C473.406 173.19 473.69 172.198 474.225 171.354C474.76 170.51 475.522 169.852 476.414 169.462C477.306 169.073 478.288 168.97 479.235 169.166C480.183 169.362 481.054 169.849 481.738 170.565C482.422 171.281 482.888 172.194 483.077 173.187C483.267 174.181 483.171 175.212 482.802 176.149C482.432 177.085 481.807 177.886 481.004 178.449C480.2 179.013 479.256 179.313 478.29 179.313C476.997 179.313 475.757 178.775 474.842 177.817C473.927 176.859 473.411 175.56 473.408 174.203Z" fill="#263238"/>
<path d="M453.937 176.758C453.454 175.881 453.23 174.873 453.293 173.862C453.356 172.851 453.704 171.883 454.291 171.079C454.879 170.275 455.681 169.672 456.595 169.346C457.509 169.021 458.495 168.987 459.428 169.249C460.361 169.511 461.198 170.058 461.835 170.819C462.472 171.581 462.879 172.524 463.005 173.528C463.131 174.533 462.97 175.554 462.543 176.462C462.116 177.371 461.442 178.126 460.606 178.633C459.484 179.309 458.152 179.491 456.902 179.14C455.653 178.789 454.586 177.932 453.937 176.758Z" fill="#263238"/>
<path d="M112.992 357.506C109.999 356.013 104.958 352.897 101.84 351.679C98.7574 350.296 95.3187 350.052 92.087 350.987C90.2548 351.632 88.4226 353.172 88.4112 355.202L100.645 364.67L112.992 361.255V357.506Z" fill="#FF9A6C"/>
<path d="M99.6091 357.375C99.6091 357.375 77.6344 352.372 73.97 350.402C70.3056 348.432 51.21 338.402 48.0122 338.402C44.8144 338.402 42.0832 339.309 41.5029 342.653L45.6793 346.056L46.2142 347.799L53.3608 351.703L54.624 354.163L72.832 364.36C72.832 364.36 91.9276 374.532 95.114 375.106C98.3004 375.679 114.21 377.076 121.015 383.153L148.327 371.38C148.327 371.38 140.441 359.631 134.364 356.73C128.947 354.151 119.854 354.151 113.493 356.885L99.6091 357.375Z" fill="#FFBF9D"/>
<path d="M117.885 376.61C117.885 376.61 152.651 456.154 158.25 472.13C158.25 472.13 197.113 465.42 198.444 442.793L148.372 371.153L117.885 376.61Z" fill="#FFBF9D"/>
<path d="M85.6004 359.178C85.6004 359.178 85.4638 359.178 85.2248 359.178C84.8693 359.14 84.5184 359.064 84.1779 358.951C82.9315 358.553 81.7207 358.041 80.559 357.422C79.0796 356.67 77.3612 355.679 75.4722 354.569C74.5276 354.02 73.5376 353.434 72.502 352.873C71.4664 352.312 70.3398 351.823 69.1904 351.297C67.0623 350.286 64.8633 349.448 62.6128 348.79C60.553 348.253 58.5729 347.847 57.0821 348.372C56.5038 348.615 55.9792 348.98 55.5408 349.444C55.1023 349.908 54.7593 350.462 54.533 351.07C54.3649 351.536 54.1711 351.99 53.9526 352.432C53.9526 352.432 53.9526 352.288 54.0095 352.049C54.0855 351.684 54.1883 351.324 54.3167 350.975C54.5178 350.418 54.7896 349.892 55.1247 349.411C55.5676 348.753 56.1849 348.247 56.9 347.954C57.7821 347.644 58.7195 347.546 59.6426 347.667C60.6749 347.774 61.6981 347.962 62.7038 348.229C65.0023 348.864 67.2478 349.695 69.418 350.712C70.556 351.238 71.694 351.727 72.7523 352.312C73.8107 352.897 74.7894 353.506 75.7339 354.067C77.6116 355.202 79.2958 356.228 80.7411 357.016C81.861 357.658 83.0205 358.221 84.212 358.7C85.0996 359.046 85.6004 359.118 85.6004 359.178Z" fill="#FF9A6C"/>
<path d="M64.6384 347.739C63.567 347.512 62.5297 347.135 61.5544 346.617C59.2073 345.454 56.7939 344.446 54.3281 343.596C52.9789 343.195 51.5688 343.069 50.1744 343.226C49.618 343.243 49.0709 343.38 48.5662 343.626C48.0615 343.872 47.6097 344.223 47.2384 344.659C46.7933 345.306 46.5008 346.055 46.3849 346.844C46.3746 347.15 46.3169 347.452 46.2142 347.739C46.1609 347.435 46.1609 347.124 46.2142 346.82C46.2567 345.968 46.5161 345.143 46.9653 344.432C47.3136 343.934 47.7649 343.526 48.2853 343.238C48.8806 342.941 49.5192 342.751 50.1744 342.677C51.6422 342.483 53.1322 342.6 54.5557 343.023C57.0566 343.865 59.4792 344.944 61.7934 346.247C62.7666 346.69 63.7163 347.188 64.6384 347.739Z" fill="#FF9A6C"/>
<path d="M119.49 355.118C119.49 355.118 119.183 355.309 118.602 355.524C117.77 355.84 116.923 356.111 116.065 356.336C113.24 357.107 110.344 357.56 107.427 357.685C104.511 357.817 101.59 357.633 98.7101 357.136C97.5721 356.933 96.73 356.73 96.1269 356.551C95.8042 356.5 95.4924 356.391 95.2051 356.228C95.2051 356.133 96.5707 356.408 98.7784 356.694C101.639 357.065 104.524 357.189 107.404 357.064C110.287 356.908 113.152 356.509 115.974 355.87C118.079 355.44 119.41 355.034 119.49 355.118Z" fill="#FF9A6C"/>
<path d="M443.183 307.895L392.61 296.91L380.092 287.06L313.291 300.576C312.222 302.63 301.399 318.486 301.399 318.486L275.089 327.859C263.906 330.942 253.925 337.623 246.548 346.963C239.532 356.053 233.785 366.144 229.478 376.932C217.642 406.078 200.561 439.749 200.561 439.749L189.853 421.648L144.719 443.952C144.719 443.952 171.155 499.867 179.906 507.855C189.636 516.726 212.009 517.753 227.475 501.204C236.795 491.222 263.731 451.772 269.342 441.898L277.672 483.186L285.331 530.314L272.949 562.755H453.664L446.187 532.093C446.187 532.093 453.55 452.178 455.587 437.301C460.378 402.209 443.183 307.895 443.183 307.895Z" fill="#5ED8FF"/>
<path d="M443.183 307.895C443.183 307.895 479.371 318.546 487.337 356.288C492.162 379.153 508.549 444.334 514.319 497.992C517.733 529.896 517.642 559.376 517.733 562.755H462.199L438.665 318.546L443.183 307.895Z" fill="#5ED8FF"/>
<path d="M350.367 340.3C350.367 340.3 350.367 340.444 350.219 340.694L349.707 341.793C349.252 342.76 348.569 344.181 347.83 345.984C346.225 349.566 344.336 354.879 341.286 360.813L341.138 361.112L340.888 360.885C337.132 357.53 333.058 353.494 328.848 349.136C321.394 341.375 314.862 334.151 310.037 329.029L304.29 322.975L302.708 321.34C302.516 321.159 302.34 320.959 302.185 320.743C302.404 320.888 302.607 321.06 302.788 321.256L304.426 322.808C305.837 324.17 307.84 326.187 310.31 328.719C315.215 333.769 321.804 340.945 329.235 348.694C333.445 353.052 337.497 357.052 341.207 360.467L340.797 360.539C343.869 354.688 345.827 349.399 347.511 345.841C348.342 344.038 349.036 342.653 349.537 341.709C349.764 341.291 349.958 340.933 350.117 340.659C350.188 340.53 350.272 340.41 350.367 340.3Z" fill="black"/>
<path d="M393.316 298.26C393.312 298.542 393.278 298.822 393.213 299.096C393.099 299.693 392.963 300.481 392.792 301.484C392.382 303.537 391.654 306.498 390.721 310.104C388.752 317.268 385.566 327.166 381.617 337.853C379.534 343.512 377.486 348.861 375.574 353.602L375.426 353.972L375.142 353.709C369.987 348.933 365.366 345.172 362.237 342.378C360.666 340.981 359.437 339.859 358.607 339.071L357.685 338.163C357.469 337.948 357.366 337.841 357.378 337.829C357.509 337.901 357.631 337.989 357.742 338.092L358.72 338.939L362.442 342.115C365.639 344.838 370.294 348.527 375.506 353.279L375.073 353.387C376.951 348.611 378.988 343.285 381.059 337.638C384.963 326.892 388.206 317.161 390.266 309.985C391.29 306.403 392.041 303.466 392.542 301.424C392.758 300.457 392.94 299.681 393.077 299.036C393.138 298.771 393.217 298.512 393.316 298.26Z" fill="black"/>
<path d="M276.25 477.897C276.202 477.816 276.167 477.727 276.147 477.634L275.908 476.822C275.703 476.026 275.419 474.976 275.055 473.67C274.668 472.309 274.292 470.626 273.837 468.667C273.382 466.709 272.892 464.465 272.403 461.981C269.885 449.026 268.114 435.924 267.1 422.746C265.814 407.308 265.53 393.278 265.598 383.141C265.598 378.067 265.723 373.959 265.86 371.13C265.928 369.745 265.973 368.658 266.008 367.858C266.008 367.524 266.008 367.237 266.064 367.01C266.052 366.915 266.052 366.819 266.064 366.724C266.074 366.823 266.074 366.923 266.064 367.022V367.87C266.064 368.67 266.064 369.756 266.064 371.13C266.064 373.971 265.973 378.067 265.996 383.141C265.996 393.266 266.383 407.284 267.669 422.686C268.693 435.845 270.402 448.935 272.79 461.897C273.257 464.381 273.689 466.673 274.133 468.584C274.577 470.494 274.907 472.249 275.271 473.611L276.022 476.787L276.193 477.61C276.25 477.802 276.261 477.897 276.25 477.897Z" fill="black"/>
<path d="M446.187 349.757C446.255 349.86 446.308 349.973 446.346 350.091C446.449 350.342 446.585 350.664 446.745 351.07C447.109 351.978 447.598 353.255 448.235 354.867C448.554 355.703 448.93 356.61 449.294 357.625L450.375 360.969C450.762 362.163 451.171 363.464 451.615 364.825C452.059 366.186 452.355 367.679 452.753 369.219C456.167 381.505 457.874 399.284 456.896 418.734C455.917 438.185 453.732 455.748 452.344 468.357C451.649 474.661 451.08 479.784 450.682 483.366C450.489 485.097 450.329 486.47 450.216 487.437L450.079 488.5C450.071 488.622 450.048 488.742 450.011 488.858C449.996 488.739 449.996 488.619 450.011 488.5L450.09 487.425C450.181 486.446 450.307 485.037 450.455 483.342C450.773 479.76 451.274 474.649 451.923 468.309C453.163 455.629 455.257 438.125 456.258 418.71C457.26 399.296 455.576 381.613 452.309 369.327L451.171 364.933L450.033 361.088C449.669 359.894 449.328 358.76 449.009 357.733C448.691 356.706 448.304 355.787 447.996 354.951C447.405 353.315 446.95 352.037 446.608 351.118C446.472 350.7 446.358 350.378 446.267 350.115C446.223 350.001 446.196 349.88 446.187 349.757Z" fill="black"/>
<path d="M200.857 480.404C200.698 480.404 200.504 471.306 200.436 460.106C200.368 448.907 200.436 439.808 200.607 439.808C200.777 439.808 200.959 448.907 201.028 460.106C201.096 471.306 201.028 480.404 200.857 480.404Z" fill="black"/>
<path d="M365.07 535.507V535.006C365.07 534.648 365.161 534.17 365.23 533.549C365.389 532.236 365.605 530.361 365.89 527.949C366.038 526.755 366.197 525.382 366.379 523.914C366.561 522.445 366.698 520.821 366.868 519.138C367.198 515.675 367.654 511.747 368.006 507.377C368.177 505.204 368.348 502.911 368.541 500.535C368.735 498.159 368.826 495.676 368.974 493.109C369.315 487.974 369.463 482.47 369.657 476.691C369.907 465.121 369.873 452.393 369.304 439.056C368.735 425.719 367.574 413.039 366.288 401.541C365.571 395.798 364.945 390.341 364.137 385.266C363.762 382.723 363.432 380.264 362.999 377.911C362.567 375.559 362.214 373.303 361.861 371.141C361.167 366.831 360.37 362.963 359.722 359.548C359.392 357.84 359.096 356.252 358.811 354.772C358.527 353.291 358.22 351.99 357.958 350.796L356.82 345.291C356.706 344.682 356.604 344.205 356.535 343.859C356.467 343.512 356.456 343.357 356.456 343.357C356.513 343.512 356.559 343.672 356.592 343.835L356.945 345.256L358.208 350.748L359.107 354.712C359.403 356.169 359.722 357.745 360.075 359.488C360.746 362.891 361.577 366.759 362.294 371.07C362.673 373.227 363.052 375.484 363.432 377.84C363.841 380.228 364.171 382.616 364.57 385.195C365.389 390.281 366.038 395.738 366.777 401.481C368.086 412.991 369.201 425.683 369.839 439.032C370.476 452.381 370.43 465.133 370.146 476.715C369.93 482.506 369.77 488.01 369.406 493.144C369.247 495.711 369.133 498.195 368.94 500.583C368.746 502.971 368.541 505.252 368.359 507.437C368.041 511.807 367.551 515.795 367.221 519.186C367.028 520.917 366.846 522.529 366.686 523.962C366.527 525.394 366.311 526.779 366.14 527.997C365.81 530.385 365.548 532.272 365.378 533.573L365.161 535.03C365.144 535.192 365.114 535.351 365.07 535.507Z" fill="black"/>
<path d="M389.128 406.627H389.355L390.072 406.544L392.86 406.209L403.523 405.015L441.476 400.884H441.76V401.182C442.045 413.23 442.386 426.865 442.739 441.325V441.456L442.659 441.54L438.107 446.71L421.515 465.312L421.367 465.479L421.174 465.372L393.213 450.805L393.088 450.745V450.638C391.87 437.325 390.812 426.316 390.163 418.591C389.822 414.794 389.56 411.809 389.378 409.743C389.298 408.752 389.23 407.988 389.185 407.427C389.139 406.866 389.185 406.663 389.185 406.663C389.185 406.663 389.185 406.95 389.287 407.475C389.389 408 389.435 408.824 389.549 409.863C389.754 411.952 390.061 414.949 390.459 418.77C391.222 426.436 392.303 437.385 393.623 450.626L393.486 450.423L421.481 464.906L421.151 464.966L437.709 446.292L442.261 441.134L442.181 441.349C441.851 426.889 441.533 413.266 441.259 401.206L441.555 401.469L403.717 405.266L392.985 406.317L390.129 406.579L389.389 406.651L389.128 406.627Z" fill="black"/>
<path d="M441.829 415.033C441.184 415.221 440.525 415.353 439.86 415.427C438.585 415.642 436.742 415.916 434.454 416.227C429.902 416.836 423.541 417.54 416.542 418.245L398.607 420.084L393.179 420.681C392.521 420.792 391.854 420.843 391.188 420.836C391.832 420.648 392.491 420.516 393.156 420.442C394.431 420.227 396.274 419.952 398.562 419.642C403.114 419.033 409.475 418.328 416.485 417.624L434.409 415.785L439.837 415.188C440.495 415.077 441.162 415.025 441.829 415.033Z" fill="black"/>
<g opacity="0.3">
<path d="M452.822 461.993L454.733 486.386C458.955 465.491 465.59 443.032 464.554 421.707C463.519 400.382 461.607 379.977 450.159 360.67C455.136 375.206 457.419 390.607 456.884 406.042C455.837 430.997 452.822 461.993 452.822 461.993Z" fill="black"/>
</g>
<path d="M193.323 416.585C192.709 415.116 191.621 413.919 190.251 413.206C188.658 412.633 186.928 413.445 185.414 414.233L144.128 435.797C141.408 437.217 138.438 438.901 137.436 441.886C136.128 445.707 138.574 449.742 140.85 453.026C144.651 458.506 149.203 464.476 155.644 465.253L191.161 439.701C195.497 439.032 198.194 433.958 197.989 429.361C197.784 424.764 195.531 420.573 193.323 416.585Z" fill="#5ED8FF"/>
<path d="M197.807 432.203C197.702 432.357 197.58 432.497 197.443 432.621L196.305 433.731C195.326 434.686 193.881 436.035 192.072 437.659C188.441 440.919 183.286 445.253 177.278 449.671C171.269 454.089 165.772 457.73 161.596 460.19C159.525 461.444 157.829 462.423 156.646 463.068L155.28 463.796C154.961 463.963 154.791 464.035 154.779 464.011C154.911 463.88 155.061 463.772 155.223 463.688L156.532 462.853L161.38 459.808C165.465 457.229 171.03 453.527 176.97 449.122C182.911 444.716 188.1 440.453 191.764 437.289L196.123 433.504L197.261 432.489C197.648 432.298 197.796 432.179 197.807 432.203Z" fill="black"/>
<g opacity="0.3">
<path d="M392.781 300.994C387.921 317.925 381.116 337.077 375.369 353.53C370.476 349.172 363.625 343.405 358.72 339.035C362.942 347.821 368.009 356.131 373.844 363.834C374.527 364.73 375.438 365.709 376.496 365.494C377.554 365.279 378.032 364.133 378.396 363.106L387.352 338.235C391.54 326.605 395.58 313.041 392.781 300.994Z" fill="black"/>
</g>
<path d="M315.966 116.796C330.76 112.33 344.598 116.796 358.242 124.222C371.887 131.649 382.891 143.911 390.015 158.18C397.526 173.212 400.849 190.728 398.129 207.456C395.409 224.184 386.397 239.945 372.9 249.246C354.453 261.998 329.03 261.329 310.037 249.521C291.043 237.712 278.537 215.945 275.225 193.033C272.949 177.248 274.793 160.603 281.814 146.466C288.836 132.33 301.251 120.867 315.954 116.784" fill="#263238"/>
<path d="M364.536 165.379C361.679 159.612 361.804 152.771 360.245 146.466C356.831 132.604 344.768 122.586 331.659 118.587C319.471 114.849 305.371 117.655 291.829 124.079C282.565 128.485 274.133 135.243 268.602 144.198C264.985 150.2 262.788 157.023 262.194 164.097C261.6 171.171 262.627 178.292 265.188 184.866L332.774 166.215C339.807 170.991 347.01 175.922 355.147 178.155C357.514 178.924 360.03 179.043 362.453 178.502C363.656 178.203 364.751 177.548 365.609 176.614C366.466 175.681 367.05 174.508 367.29 173.236C367.574 170.394 365.776 167.899 364.536 165.379Z" fill="#263238"/>
<path d="M380.661 291.12L363.215 162.383C362.442 156.293 359.801 150.084 353.964 150.371L292.512 144.162C273.257 145.093 264.221 171.624 265.928 191.719C267.828 214.095 270.981 241.33 275.885 257.473C285.752 289.914 310.663 290.248 310.663 290.248C310.663 290.248 312.176 296.696 314.077 308.755L353.907 336.551L380.661 291.12Z" fill="#FFBF9D"/>
<path d="M280.779 216.208C280.932 217.321 281.493 218.328 282.344 219.013C283.194 219.698 284.266 220.007 285.331 219.874C285.854 219.835 286.365 219.686 286.833 219.437C287.3 219.187 287.716 218.842 288.054 218.421C288.393 218.001 288.647 217.513 288.803 216.987C288.959 216.461 289.012 215.908 288.961 215.36C288.805 214.247 288.243 213.242 287.394 212.555C286.545 211.869 285.474 211.556 284.409 211.683C283.886 211.725 283.375 211.876 282.908 212.127C282.441 212.378 282.027 212.725 281.689 213.146C281.351 213.567 281.096 214.055 280.94 214.581C280.784 215.107 280.729 215.66 280.779 216.208Z" fill="#263238"/>
<path d="M273.609 204.925C274.19 205.402 276.921 202.537 281.302 201.832C285.683 201.128 289.211 202.931 289.61 202.286C289.803 201.999 289.143 201.092 287.595 200.232C285.501 199.166 283.146 198.799 280.847 199.182C278.57 199.536 276.461 200.645 274.827 202.346C273.632 203.635 273.325 204.674 273.609 204.925Z" fill="#263238"/>
<path d="M321.212 209.307C321.362 210.422 321.923 211.432 322.773 212.119C323.624 212.806 324.698 213.117 325.764 212.984C326.287 212.945 326.798 212.797 327.266 212.547C327.734 212.298 328.149 211.953 328.487 211.532C328.826 211.111 329.08 210.623 329.236 210.098C329.392 209.572 329.446 209.019 329.394 208.471C329.244 207.355 328.683 206.346 327.833 205.658C326.982 204.971 325.908 204.661 324.842 204.793C324.319 204.834 323.809 204.983 323.342 205.233C322.875 205.483 322.461 205.829 322.122 206.249C321.784 206.669 321.53 207.156 321.373 207.682C321.217 208.207 321.162 208.759 321.212 209.307Z" fill="#263238"/>
<path d="M315.226 198.847C315.806 199.325 318.549 196.459 322.919 195.755C327.289 195.05 330.828 196.853 331.226 196.209C331.42 195.922 330.76 195.015 329.212 194.155C327.115 193.086 324.755 192.72 322.452 193.104C320.147 193.461 318.012 194.587 316.364 196.316C315.226 197.51 314.919 198.704 315.226 198.847Z" fill="#263238"/>
<path d="M305.803 235.467C305.803 235.205 302.992 235.145 298.509 235.264C297.371 235.264 296.233 235.264 295.971 234.488C295.709 233.712 295.869 232.351 296.21 230.906C296.847 227.905 297.519 224.757 298.224 221.462C300.955 208.017 302.776 197.044 302.241 196.937C301.707 196.829 299.089 207.683 296.347 221.056C295.698 224.363 295.072 227.527 294.492 230.548C294.264 231.945 293.752 233.569 294.583 235.228C294.801 235.619 295.103 235.95 295.464 236.197C295.826 236.443 296.237 236.598 296.665 236.649C297.307 236.741 297.958 236.741 298.6 236.649C303.072 236.148 305.826 235.718 305.803 235.467Z" fill="#263238"/>
<path d="M310.674 290.248C325.637 288.09 339.734 281.613 351.392 271.538C351.392 271.538 341.457 297.627 312.7 300.254L310.674 290.248Z" fill="#FF9A6C"/>
<path d="M309.263 246.237C309.934 245.005 310.894 243.973 312.05 243.238C313.207 242.502 314.523 242.088 315.875 242.034C316.857 241.975 317.84 242.125 318.766 242.476C319.691 242.827 320.539 243.371 321.257 244.076C321.953 244.749 322.436 245.629 322.639 246.599C322.843 247.568 322.758 248.58 322.395 249.497C321.474 251.419 319.061 252.219 316.888 251.885C314.71 251.45 312.637 250.565 310.788 249.282C310.237 248.986 309.746 248.58 309.343 248.088C309.144 247.861 309.015 247.578 308.97 247.274C308.926 246.97 308.968 246.659 309.092 246.38" fill="#FF9A6C"/>
<path d="M319.141 236.578C318.412 236.649 319.141 241.64 315.579 245.819C312.017 249.998 306.907 250.273 306.964 250.965C306.964 251.3 308.239 251.753 310.378 251.479C313.167 251.073 315.73 249.648 317.616 247.455C319.425 245.354 320.384 242.596 320.29 239.766C320.165 237.652 319.459 236.506 319.141 236.578Z" fill="#263238"/>
<path d="M313.974 185.14C314.589 186.334 318.868 185.033 324.091 184.854C329.315 184.674 333.684 185.486 334.197 184.257C334.424 183.672 333.536 182.621 331.682 181.678C329.233 180.556 326.573 180.033 323.904 180.149C321.234 180.265 318.625 181.016 316.273 182.346C314.509 183.445 313.701 184.579 313.974 185.14Z" fill="#263238"/>
<path d="M271.982 184.663C272.904 185.582 275.76 184.018 279.379 183.385C282.998 182.752 286.207 183.015 286.708 181.809C286.947 181.224 286.309 180.269 284.83 179.493C282.857 178.601 280.677 178.343 278.564 178.751C276.452 179.159 274.502 180.215 272.961 181.785C271.811 183.063 271.55 184.209 271.982 184.663Z" fill="#263238"/>
<path d="M374.482 154.359C366.197 135.923 336.222 113.034 317.195 117.13L288.984 140.723C290.678 146.077 293.719 150.851 297.785 154.542C301.851 158.232 306.792 160.702 312.085 161.69C317.718 162.669 324.319 162.227 328.165 166.669C332.012 171.111 331.09 178.752 334.811 183.469C339.966 190.012 351.528 188.054 355.693 195.337C357.525 198.513 357.309 202.644 359.176 205.796C361.679 209.987 373.162 214.154 377.384 212.029C381.606 209.904 380.65 201.976 381.571 197.594C383.153 190.131 381.651 186.585 380.331 182.716C377.247 173.546 378.442 163.147 374.482 154.359Z" fill="#263238"/>
<path d="M364.786 217.808C364.433 215.324 366.311 209.056 368.587 208.256C374.664 206.25 385.964 204.972 388.479 221.545C391.893 244.231 369.543 243.145 369.395 242.5C369.247 241.855 366.015 226.333 364.786 217.808Z" fill="#FFBF9D"/>
<path d="M374.687 232.828C374.778 232.733 375.108 233.043 375.825 233.234C376.78 233.493 377.793 233.347 378.647 232.828C380.786 231.575 382.129 227.455 381.617 223.348C381.376 221.399 380.722 219.53 379.705 217.88C379.396 217.205 378.936 216.62 378.362 216.174C377.789 215.729 377.121 215.437 376.416 215.324C375.966 215.276 375.514 215.395 375.139 215.661C374.764 215.928 374.491 216.324 374.368 216.781C374.174 217.462 374.368 217.892 374.265 217.975C374.163 218.059 373.753 217.677 373.776 216.709C373.814 216.131 374.039 215.583 374.413 215.157C374.934 214.583 375.65 214.248 376.405 214.226C378.089 214.071 379.819 215.42 380.866 217.08C382.085 218.89 382.866 220.984 383.142 223.181C383.699 227.766 382.118 232.411 379.136 233.927C378.585 234.202 377.982 234.344 377.372 234.344C376.762 234.344 376.159 234.202 375.608 233.927C374.812 233.33 374.618 232.876 374.687 232.828Z" fill="#FF9A6C"/>
<path d="M294.537 133.094C293.547 142.646 281.405 156.078 276.329 163.994C266.576 179.098 264.847 183.934 268.283 214.692C261.82 204.698 256.63 194.764 255.765 182.716C254.901 170.669 257.791 158.168 264.801 148.592C271.811 139.016 283.089 132.712 294.594 133.07" fill="#263238"/>
<path d="M346.1 100.7C350.652 95.4349 357.23 92.0081 364.058 90.2171C373.787 87.662 384.473 88.3545 393.327 92.7962C402.181 97.2379 409.031 105.572 410.818 115.124C411.696 120.031 411.283 125.096 409.623 129.775C407.963 134.454 405.118 138.569 401.395 141.679C406.458 146.828 412.63 150.621 419.387 152.735C417.544 155.636 414.141 157.332 410.704 157.941C407.249 158.394 403.752 158.37 400.303 157.869C402.657 161.56 406.181 164.259 410.249 165.487C404.649 166.843 398.807 166.642 393.304 164.902C387.922 163.19 382.77 160.762 377.975 157.678C361.326 147.541 352.143 138.658 340.899 123.052C339.431 116.318 341.514 105.978 346.1 100.7Z" fill="#263238"/>
<path d="M381.992 148.556C369.77 129.822 354.214 119.804 340.137 116.688Z" fill="#263238"/>
<path d="M340.137 116.688C340.782 116.959 341.448 117.171 342.128 117.321C343.414 117.703 345.269 118.288 347.5 119.184C353.307 121.551 358.766 124.766 363.716 128.736C368.667 132.695 373.179 137.225 377.167 142.24C378.669 144.186 379.887 145.822 380.672 146.896C381.063 147.505 381.505 148.077 381.992 148.604C381.663 147.951 381.283 147.328 380.854 146.741C380.126 145.547 378.965 143.935 377.497 141.965C373.609 136.8 369.129 132.156 364.16 128.139C359.151 124.129 353.586 120.948 347.659 118.706C345.871 118.039 344.047 117.484 342.197 117.046C341.52 116.869 340.831 116.75 340.137 116.688Z" fill="#455A64"/>
<path d="M396.559 164.52L396.286 164.615L395.489 164.95C394.806 165.26 393.782 165.666 392.439 166.144C388.644 167.477 384.708 168.319 380.718 168.651C374.803 169.113 368.855 168.711 363.045 167.457C355.929 165.888 348.971 163.614 342.265 160.663C335.095 157.595 328.336 154.442 322.316 151.35C316.969 148.636 311.822 145.507 306.919 141.989C303.622 139.607 300.51 136.956 297.61 134.061C296.563 133.046 295.812 132.198 295.334 131.673L294.731 131.04C294.594 130.909 294.526 130.837 294.514 130.849C294.503 130.861 294.514 130.933 294.685 131.088L295.243 131.768C295.732 132.365 296.46 133.237 297.519 134.288C300.37 137.267 303.458 139.987 306.748 142.419C311.634 146.02 316.782 149.214 322.145 151.971C328.176 155.111 334.925 158.287 342.106 161.368C348.853 164.326 355.858 166.593 363.022 168.138C368.89 169.366 374.894 169.712 380.854 169.164C384.839 168.782 388.762 167.876 392.53 166.466C393.862 165.929 394.875 165.487 395.546 165.129L396.309 164.735C396.479 164.579 396.57 164.532 396.559 164.52Z" fill="#455A64"/>
<path d="M332.08 276.959L330.02 272.732C330.168 272.648 344.461 264.959 349.958 260.111C362.908 248.697 374.812 230.464 374.937 230.261L378.692 232.948C378.192 233.724 366.322 251.909 352.882 263.753C346.965 268.935 332.683 276.636 332.08 276.959Z" fill="#455A64"/>
<path d="M342.72 263.765C342.72 263.765 323.192 272.911 323.192 274.941C323.192 276.971 326.287 281.03 328.609 280.827C330.93 280.624 337.645 276.66 338.851 275.036C340.057 273.413 342.197 269.234 344.541 267.204L342.72 263.765Z" fill="#263238"/>
<path d="M378.533 202.286L373.981 202.059C374.146 188.287 371.885 174.601 367.312 161.69C357.434 134.992 338.441 120.664 310.879 119.088C308.372 118.973 305.86 119.153 303.391 119.625L305.382 117.643C306.347 116.688 307.469 115.923 308.694 115.387C310.372 114.651 312.197 114.355 314.008 114.527C348.808 117.691 364.536 140.902 371.603 160.102C376.417 173.582 378.768 187.893 378.533 202.286Z" fill="#455A64"/>
<path d="M376.257 245.712C384.22 245.712 390.675 235.972 390.675 223.957C390.675 211.942 384.22 202.202 376.257 202.202C368.294 202.202 361.838 211.942 361.838 223.957C361.838 235.972 368.294 245.712 376.257 245.712Z" fill="#455A64"/>
<path d="M390.675 223.957C390.662 223.858 390.662 223.758 390.675 223.659C390.675 223.42 390.675 223.133 390.607 222.775C390.556 221.647 390.446 220.523 390.277 219.408C389.689 215.294 388.162 211.391 385.828 208.029C385.041 206.942 384.132 205.96 383.119 205.104C382.016 204.193 380.773 203.486 379.443 203.014C378.02 202.53 376.513 202.38 375.028 202.573C373.457 202.82 371.953 203.41 370.612 204.304C367.772 206.377 365.579 209.285 364.308 212.662C362.887 216.258 362.155 220.112 362.155 224.005C362.155 227.898 362.887 231.752 364.308 235.348C365.577 238.725 367.771 241.634 370.612 243.706C371.953 244.6 373.457 245.19 375.028 245.437C376.513 245.624 378.019 245.474 379.443 244.995C380.773 244.524 382.016 243.817 383.119 242.906C384.129 242.047 385.038 241.065 385.828 239.981C388.162 236.619 389.689 232.715 390.277 228.602C390.445 227.487 390.556 226.362 390.607 225.235C390.607 224.876 390.607 224.59 390.675 224.351C390.66 224.252 390.66 224.151 390.675 224.053C390.693 224.151 390.693 224.252 390.675 224.351V225.235C390.663 226.373 390.587 227.509 390.448 228.638C389.939 232.825 388.445 236.813 386.101 240.243C385.304 241.368 384.379 242.386 383.347 243.276C382.209 244.24 380.918 244.988 379.534 245.485C378.043 245.999 376.462 246.166 374.903 245.974C373.256 245.727 371.677 245.116 370.271 244.183C367.327 242.082 365.048 239.105 363.728 235.634C362.263 231.967 361.508 228.029 361.508 224.053C361.508 220.076 362.263 216.139 363.728 212.471C365.048 209.001 367.327 206.024 370.271 203.922C371.677 202.989 373.256 202.379 374.903 202.131C376.462 201.94 378.043 202.107 379.534 202.62C380.918 203.117 382.209 203.865 383.347 204.829C384.382 205.716 385.307 206.735 386.101 207.862C388.448 211.29 389.942 215.28 390.448 219.468C390.587 220.592 390.663 221.725 390.675 222.859V223.754C390.683 223.822 390.683 223.89 390.675 223.957Z" fill="#263238"/>
<path d="M378.476 236.59C383.548 236.59 387.66 230.389 387.66 222.739C387.66 215.09 383.548 208.889 378.476 208.889C373.404 208.889 369.292 215.09 369.292 222.739C369.292 230.389 373.404 236.59 378.476 236.59Z" fill="#455A64"/>
<path d="M387.66 222.739C387.591 222.739 387.66 221.688 387.33 219.838C386.949 217.243 385.973 214.784 384.485 212.674C383.473 211.226 382.069 210.132 380.456 209.534C379.561 209.231 378.613 209.137 377.679 209.259C376.695 209.413 375.753 209.783 374.914 210.345C373.128 211.651 371.747 213.477 370.943 215.599C370.042 217.869 369.582 220.304 369.588 222.763C369.577 225.222 370.038 227.659 370.943 229.927C371.747 232.049 373.128 233.876 374.914 235.181C375.753 235.743 376.695 236.113 377.679 236.267C378.613 236.389 379.561 236.295 380.456 235.993C382.069 235.394 383.473 234.3 384.485 232.852C385.973 230.742 386.949 228.283 387.33 225.688C387.614 223.838 387.591 222.787 387.66 222.799C387.675 223.049 387.675 223.301 387.66 223.551C387.658 224.278 387.613 225.004 387.523 225.724C387.221 228.403 386.278 230.958 384.781 233.151C383.738 234.698 382.268 235.873 380.57 236.518C379.612 236.86 378.594 236.974 377.588 236.852C376.522 236.679 375.502 236.272 374.596 235.658C372.704 234.311 371.238 232.403 370.385 230.178C369.446 227.828 368.963 225.305 368.963 222.757C368.963 220.209 369.446 217.686 370.385 215.336C371.238 213.111 372.704 211.203 374.596 209.856C375.499 209.244 376.515 208.838 377.577 208.662C378.586 208.541 379.608 208.655 380.57 208.996C382.268 209.641 383.738 210.816 384.781 212.363C386.278 214.556 387.221 217.111 387.523 219.79C387.613 220.511 387.658 221.236 387.66 221.963C387.675 222.222 387.675 222.481 387.66 222.739Z" fill="#263238"/>
<path d="M379.113 232.697C382.759 232.697 385.714 228.239 385.714 222.739C385.714 217.24 382.759 212.781 379.113 212.781C375.468 212.781 372.513 217.24 372.513 222.739C372.513 228.239 375.468 232.697 379.113 232.697Z" fill="#455A64"/>
<path d="M385.714 222.739C385.657 222.739 385.657 221.987 385.452 220.662C385.159 218.799 384.449 217.035 383.381 215.516C382.661 214.485 381.661 213.707 380.513 213.283C379.859 213.063 379.166 213.002 378.486 213.103C377.806 213.204 377.157 213.466 376.587 213.868C374.117 215.575 372.809 219.157 372.797 222.727C372.786 226.297 374.117 229.891 376.587 231.599C377.157 232.001 377.806 232.262 378.486 232.363C379.166 232.465 379.859 232.403 380.513 232.184C381.661 231.76 382.661 230.981 383.381 229.951C384.449 228.432 385.159 226.668 385.452 224.805C385.657 223.479 385.657 222.727 385.714 222.739C385.741 222.917 385.741 223.099 385.714 223.277C385.719 223.799 385.693 224.322 385.634 224.841C385.429 226.781 384.756 228.635 383.677 230.226C382.908 231.327 381.842 232.159 380.615 232.614C379.916 232.86 379.175 232.946 378.442 232.864C377.665 232.752 376.92 232.467 376.257 232.029C374.879 231.05 373.813 229.661 373.196 228.041C372.511 226.34 372.158 224.513 372.158 222.668C372.158 220.822 372.511 218.995 373.196 217.295C373.813 215.674 374.879 214.285 376.257 213.307C376.92 212.868 377.665 212.583 378.442 212.471C379.175 212.39 379.916 212.475 380.615 212.722C381.842 213.176 382.908 214.009 383.677 215.11C384.756 216.7 385.429 218.554 385.634 220.494C385.693 221.014 385.719 221.536 385.714 222.059C385.755 222.283 385.755 222.514 385.714 222.739Z" fill="#263238"/>
</g>
<defs>
<filter id="filter0_d_3_207" x="-4" y="0.5" width="577" height="605" filterUnits="userSpaceOnUse" color-interpolation-filters="sRGB">
<feFlood flood-opacity="0" result="BackgroundImageFix"/>
<feColorMatrix in="SourceAlpha" type="matrix" values="0 0 0 0 0 0 0 0 0 0 0 0 0 0 0 0 0 0 127 0" result="hardAlpha"/>
<feOffset dy="4"/>
<feGaussianBlur stdDeviation="2"/>
<feComposite in2="hardAlpha" operator="out"/>
<feColorMatrix type="matrix" values="0 0 0 0 0 0 0 0 0 0 0 0 0 0 0 0 0 0 0.25 0"/>
<feBlend mode="normal" in2="BackgroundImageFix" result="effect1_dropShadow_3_207"/>
<feBlend mode="normal" in="SourceGraphic" in2="effect1_dropShadow_3_207" result="shape"/>
</filter>
</defs>
</svg>
